<?xml version="1.0" encoding="UTF-8"?>
<svg id="Layer_2" data-name="Layer 2" xmlns="http://www.w3.org/2000/svg" viewBox="0 0 16.04 18">
  <defs>
    <style>
      .cls-1 {
        fill: #646565;
        stroke-width: 0px;
      }
    </style>
  </defs>
  <g id="Layer_1-2" data-name="Layer 1">
    <g>
      <path class="cls-1" d="M6.17,12.89l-1.05,1.92-1.69-.81,1.05-2.54c.32.59.84,1.08,1.51,1.36.06.02.12.05.17.07Z"/>
      <path class="cls-1" d="M13.08,8.99c-.15.13-.33.2-.51.2-.21,0-.41-.08-.56-.25l-.78-.86.42-1.01c.08-.19.14-.39.18-.59l1.31,1.45c.28.31.26.79-.05,1.07Z"/>
      <rect class="cls-1" x="3.88" y="6.07" width="8.22" height="3.78" rx="1.89" ry="1.89" transform="translate(-2.42 12.32) rotate(-67.61)"/>
      <circle class="cls-1" cx="10.98" cy="1.71" r="1.71"/>
      <rect class="cls-1" x="3.47" y="4.21" width="6.12" height="1.52" rx=".76" ry=".76" transform="translate(-.39 .56) rotate(-4.79)"/>
      <rect class="cls-1" x="1.34" y="5.52" width="4.23" height="1.52" rx=".76" ry=".76" transform="translate(-3.67 5.55) rotate(-55.34)"/>
      <rect class="cls-1" x="11.82" y="7.61" width="4.23" height="1.52" rx=".76" ry=".76" transform="translate(28.25 16.05) rotate(177.24)"/>
      <rect class="cls-1" x="10.09" y="12.71" width="1.87" height="5.29" rx=".94" ry=".94"/>
      <polygon class="cls-1" points="11.6 12.93 10.5 14.44 6.2 11.64 7.62 9.69 11.6 12.93"/>
      <rect class="cls-1" x="1.67" y="12.17" width="1.87" height="5.29" rx=".94" ry=".94" transform="translate(16.47 9) rotate(77.21)"/>
    </g>
  </g>
</svg>