<?xml version="1.0" encoding="UTF-8"?>
<svg id="Layer_2" data-name="Layer 2" xmlns="http://www.w3.org/2000/svg" viewBox="0 0 18 18">
  <defs>
    <style>
      .cls-1 {
        fill: rgba(202, 78, 157, 0);
      }

      .cls-1, .cls-2 {
        stroke-width: 0px;
      }

      .cls-2 {
        fill: #646565;
      }
    </style>
  </defs>
  <g id="Layer_1-2" data-name="Layer 1">
    <rect id="Canvas" class="cls-1" y="0" width="18" height="18"/>
    <path class="cls-2" d="M6.99,3.38c.77.77,2.02.76,2.79-.01.77-.77.76-2.02-.01-2.79-.77-.76-2.01-.76-2.78,0,.24.43.36.91.37,1.4,0,.49-.13.97-.36,1.4ZM8.49,4.5h-.23c-.23,0-.45.02-.68.05.76.68,1.19,1.66,1.16,2.68v4.71c0,.71-.57,1.28-1.28,1.28h-.19l-.41,4.37.02.17c.02.14.14.24.28.24h2.41c.14,0,.26-.1.28-.24l.52-5.54h1.1c.16,0,.28-.13.28-.28v-4.71c0-1.82-1.46-2.73-3.26-2.73Z"/>
    <path class="cls-2" d="M11.24,3.38c.77.77,2.02.76,2.79-.01.77-.77.76-2.02-.01-2.79-.77-.76-2.01-.76-2.78,0,.24.43.36.91.37,1.4,0,.49-.13.97-.36,1.4ZM12.74,4.5h-.23c-.23,0-.45.02-.68.05.76.68,1.19,1.66,1.16,2.68v4.71c0,.71-.57,1.28-1.28,1.28h-.19l-.41,4.37.02.17c.02.14.14.24.28.24h2.41c.14,0,.26-.1.28-.24l.52-5.54h1.1c.16,0,.28-.13.28-.28v-4.71c0-1.82-1.46-2.73-3.26-2.73Z"/>
    <path class="cls-2" d="M6.35,1.97c0,1.09-.88,1.97-1.97,1.97-1.09,0-1.97-.88-1.97-1.97C2.4.88,3.29,0,4.38,0c1.09,0,1.97.88,1.97,1.97h0ZM4.49,4.5h-.22c-1.8,0-3.26.91-3.26,2.73v4.71c0,.16.13.28.28.28h1.09l.52,5.54c.02.14.14.24.28.25h2.41c.14,0,.26-.1.28-.24l.52-5.54h1.1c.16,0,.28-.13.28-.28h0v-4.71c0-1.82-1.46-2.73-3.26-2.73Z"/>
  </g>
</svg>