<?xml version="1.0" encoding="UTF-8"?>
<svg id="Layer_2" data-name="Layer 2" xmlns="http://www.w3.org/2000/svg" viewBox="0 0 22.29 22.29">
  <defs>
    <style>
      .cls-1 {
        fill: #000;
      }

      .cls-1, .cls-2 {
        stroke-width: 0px;
      }

      .cls-2 {
        fill: #54ba5d;
      }
    </style>
  </defs>
  <g id="Layer_1-2" data-name="Layer 1">
    <path class="cls-2" d="M9.04,13.43l1.27-8.18h1.56l1.27,8.18.59-8.18h2.04l-1.51,11.78h-1.93l-1.2-7.62-1.29,7.62h-1.93l-1.52-11.78h2.04l.59,8.18Z"/>
    <path class="cls-1" d="M18.8,22.29H3.5c-1.93,0-3.5-1.57-3.5-3.5V3.5C0,1.57,1.57,0,3.5,0h15.3c1.93,0,3.5,1.57,3.5,3.5v15.3c0,1.93-1.57,3.5-3.5,3.5ZM3.5.89C2.06.89.89,2.06.89,3.5v15.3c0,1.44,1.17,2.61,2.61,2.61h15.3c1.44,0,2.61-1.17,2.61-2.61V3.5c0-1.44-1.17-2.61-2.61-2.61H3.5Z"/>
  </g>
</svg>