<?xml version="1.0" encoding="UTF-8"?>
<svg id="Layer_2" data-name="Layer 2" xmlns="http://www.w3.org/2000/svg" viewBox="0 0 17.97 10.26">
  <defs>
    <style>
      .cls-1 {
        fill: #646565;
        stroke-width: 0px;
      }
    </style>
  </defs>
  <g id="Layer_1-2" data-name="Layer 1">
    <g>
      <path class="cls-1" d="M16.21,10.26H1.75c-.97,0-1.75-.79-1.75-1.75V1.75C0,.79.79,0,1.75,0h14.46c.97,0,1.75.79,1.75,1.75v6.75c0,.97-.79,1.75-1.75,1.75ZM1.75,1.25c-.28,0-.5.23-.5.5v6.75c0,.28.23.5.5.5h14.46c.28,0,.5-.23.5-.5V1.75c0-.28-.23-.5-.5-.5H1.75Z"/>
      <path class="cls-1" d="M5.32,2.87l.48,1.49h1.56c.27,0,.38.35.16.51l-1.26.92.48,1.49c.08.26-.21.47-.43.31l-1.26-.92-1.26.92c-.22.16-.51-.06-.43-.31l.48-1.49-1.26-.92c-.22-.16-.11-.51.16-.51h1.56s.48-1.49.48-1.49c.08-.26.45-.26.53,0Z"/>
      <rect class="cls-1" x="9.51" y="2.73" width="5.61" height="1.03" rx=".51" ry=".51"/>
      <rect class="cls-1" x="9.51" y="4.62" width="6.28" height="1.03" rx=".51" ry=".51"/>
      <rect class="cls-1" x="9.51" y="6.5" width="4.49" height="1.03" rx=".51" ry=".51"/>
    </g>
  </g>
</svg>