<?xml version="1.0" encoding="UTF-8"?>
<svg id="Layer_2" data-name="Layer 2" xmlns="http://www.w3.org/2000/svg" viewBox="0 0 574.68 328.27">
  <defs>
    <style>
      .cls-1 {
        fill: #fff;
        stroke-width: 0px;
      }
    </style>
  </defs>
  <g id="Layer_1-2" data-name="Layer 1">
    <g>
      <path class="cls-1" d="M518.55,328.27H56.14c-30.95,0-56.14-25.18-56.14-56.14V56.14C0,25.18,25.18,0,56.14,0h462.41c30.95,0,56.13,25.18,56.13,56.14v216c0,30.95-25.18,56.14-56.13,56.14ZM56.14,40c-8.9,0-16.14,7.24-16.14,16.14v216c0,8.9,7.24,16.14,16.14,16.14h462.41c8.9,0,16.13-7.24,16.13-16.14V56.14c0-8.9-7.24-16.14-16.13-16.14H56.14Z"/>
      <path class="cls-1" d="M170.15,91.79l15.43,47.5h49.95c8.67,0,12.28,11.1,5.26,16.2l-40.41,29.36,15.43,47.5c2.68,8.25-6.76,15.11-13.78,10.01l-40.41-29.36-40.41,29.36c-7.02,5.1-16.46-1.76-13.78-10.01l15.43-47.5-40.41-29.36c-7.02-5.1-3.41-16.2,5.26-16.2h49.95s15.43-47.5,15.43-47.5c2.68-8.25,14.35-8.25,17.03,0Z"/>
      <rect class="cls-1" x="304.24" y="87.44" width="179.54" height="32.79" rx="16.39" ry="16.39"/>
      <rect class="cls-1" x="304.24" y="147.74" width="200.87" height="32.79" rx="16.39" ry="16.39"/>
      <rect class="cls-1" x="304.24" y="208.04" width="143.77" height="32.79" rx="16.39" ry="16.39"/>
    </g>
  </g>
</svg>