<?xml version="1.0" encoding="UTF-8"?>
<svg id="Layer_2" data-name="Layer 2" xmlns="http://www.w3.org/2000/svg" viewBox="0 0 18 18">
  <defs>
    <style>
      .cls-1 {
        fill: rgba(202, 78, 157, 0);
      }

      .cls-1, .cls-2 {
        stroke-width: 0px;
      }

      .cls-2 {
        fill: #646565;
      }
    </style>
  </defs>
  <g id="Layer_1-2" data-name="Layer 1">
    <g>
      <rect id="Canvas" class="cls-1" width="18" height="18"/>
      <path class="cls-2" d="M17.75,1h-3.5c-.14,0-.25.11-.25.25v2.21l-3.01,1.78c0-.13-.11-.23-.24-.24h-3.5c-.14,0-.25.11-.25.25v.48l-3-1.11v-2.36c0-.14-.11-.25-.25-.25H.25c-.14,0-.25.11-.25.25v3.5c0,.14.11.25.25.25h1.94l1.85,6h-.78c-.14,0-.25.11-.25.25v3.5c0,.14.11.25.25.25h3.5c.14,0,.25-.11.25-.25v-1.28l5-.83v1.12c0,.14.11.25.25.25h3.5c.14,0,.25-.11.25-.25v-3.5c0-.14-.11-.25-.25-.25h-.72l.92-6h1.8c.14,0,.25-.11.25-.25V1.25c0-.14-.11-.25-.25-.25ZM8,6h2v2h-2v-2ZM3,5H1v-2h2v2ZM6,15h-2v-2h2v2ZM12,11.25v1.37l-5,.83v-1.2c0-.14-.11-.25-.25-.25h-1.67l-1.85-6h.52c.14,0,.25-.11.25-.25v-.07l3,1.11v1.96c0,.14.11.25.25.25h3.5c.14,0,.25-.11.25-.25v-2.35l3-1.78v.13c0,.14.11.25.25.25h.69l-.92,6h-1.76c-.14,0-.25.11-.25.25ZM15,14h-2v-2h2v2ZM17,4h-2v-2h2v2Z"/>
    </g>
  </g>
</svg>